<?xml version="1.0" ?><!DOCTYPE svg  PUBLIC '-//W3C//DTD SVG 1.1//EN'  'http://www.w3.org/Graphics/SVG/1.1/DTD/svg11.dtd'><svg enable-background="new 0 0 32 32" version="1.1" viewBox="0 0 32 32" xml:space="preserve" xmlns="http://www.w3.org/2000/svg" xmlns:xlink="http://www.w3.org/1999/xlink"><g><g id="Guide"/><g id="Notification"/><g id="New_Notification"/><g id="Statistic"/><g id="Favorite"/><g id="Checkbox"/><g id="Writing"/><g id="Italic"/><g id="Underline"/><g id="Setting"><g><circle cx="16" cy="16.6" fill="none" r="2.8" stroke="#1D1D1B" stroke-miterlimit="10"/><path d="M26.1,17.9v-2.5l-3.1-0.9c-0.1-0.4-0.3-0.8-0.5-1.2l1.6-2.9      l-1.8-1.8l-2.9,1.6C19,10,18.6,9.9,18.2,9.7l-0.9-3.1h-2.5l-0.9,3.1c-0.4,0.1-0.8,0.3-1.2,0.5L9.8,8.6L8,10.4l1.6,2.9      c-0.2,0.4-0.4,0.8-0.5,1.2L6,15.4v2.5l3.1,0.9c0.1,0.4,0.3,0.8,0.5,1.2L8,22.8l1.8,1.8l2.8-1.6c0.4,0.2,0.8,0.4,1.2,0.5l0.9,3.1      h2.5l0.9-3.1c0.4-0.1,0.8-0.3,1.2-0.5l2.8,1.6l1.8-1.8L22.4,20c0.2-0.4,0.4-0.8,0.5-1.2L26.1,17.9z" fill="none" stroke="#1D1D1B" stroke-miterlimit="10"/></g></g><g id="Power"/></g></svg>